PathFileType	4	(X/Y/Z)	C:\Users\WrightLab\Desktop\Jo\P5V122.trc
DataRate	CameraRate	NumFrames	NumMarkers	Units	OrigDataRate	OrigDataStartFrame	OrigNumFrames
100.00	100.00	       13	19	mm	100.00	285	       569
Frame#	Time	Headset_Front			Headset_Back			Headset_Left			Headset_Right			Left_Shoulder			Right_Shoulder			Sternum			C7			Left Elbow			Right Elbow			Left Wrist			Right Wrist			Left ASIS			Right ASIS			S2			Left Knee			Right Knee			Left Ankle			Right Ankle			
		X1	Y1	Z1	X2	Y2	Z2	X3	Y3	Z3	X4	Y4	Z4	X5	Y5	Z5	X6	Y6	Z6	X7	Y7	Z7	X8	Y8	Z8	X9	Y9	Z9	X10	Y10	Z10	X11	Y11	Z11	X12	Y12	Z12	X13	Y13	Z13	X14	Y14	Z14	X15	Y15	Z15	X16	Y16	Z16	X17	Y17	Z17	X18	Y18	Z18	X19	Y19	Z19	

285	2.840	124.32703	1585.97595	803.06122	-11.91543	1540.79614	460.83118							235.70950	1516.95544	455.59717	-114.99727	1486.48267	670.83014	99.63977	1350.52161	648.06464	-3.24324	1644.14661	745.34851	331.92169	1227.04041	455.47214	-218.58972	1209.70496	671.33081	415.08322	1016.67419	563.65991	-199.71143	968.25110	785.12415	224.54745	954.78754	581.70569	-16.24267	978.40942	720.56738	7.46978	987.82513	390.98410	269.20108	532.83142	489.83829	30.82263	524.92139	780.47260	154.83936	110.40076	436.14890	-193.53148	286.09277	527.85938	
286	2.850	129.40416	1586.83215	810.73309	-5.30622	1541.68018	467.87997							242.33182	1517.90698	464.18900	-109.82864	1486.74573	677.40448	105.19411	1351.32837	654.95697	2.10620	1644.92603	752.46057	339.90695	1228.48303	464.90765	-213.78003	1209.96008	676.20636	421.98746	1019.61603	577.14709	-194.96507	967.42322	789.02808	229.52852	955.40057	591.12885	-12.25635	979.18701	727.90167	14.83210	988.68011	400.55957	270.63281	533.79578	496.42517	42.75977	531.06348	793.30280	154.94810	110.77739	436.96500	-175.77377	283.47052	543.20441	
287	2.860	134.27750	1588.09985	818.50403	1.11245	1542.48694	475.00348							248.96413	1518.81677	473.13922	-104.24567	1487.23523	683.58203	109.98631	1351.78479	662.56970	6.75162	1646.16895	759.93677	346.54517	1229.62463	476.85577	-208.68524	1210.23145	680.97693	428.33020	1022.52667	590.56592	-190.55652	967.51154	792.52374	233.89755	955.78064	599.74207	-8.46349	979.50153	735.16071	22.04874	988.85516	409.32120	271.05093	534.50671	504.17163	55.40217	537.51135	805.06140	153.75230	111.28253	437.78104	-157.98338	279.96835	558.53400	
288	2.870	138.69658	1589.11121	826.42316										254.97881	1519.44250	480.74609	-99.14769	1487.30896	689.92712	115.72146	1352.44202	670.19250	11.93945	1646.61816	767.30542	353.24237	1231.00305	486.93945	-203.63219	1210.05835	685.94348	434.38986	1024.80811	604.19580	-187.10867	967.09247	796.19073	238.14020	955.77881	607.39954	-4.07772	979.69379	742.62537	26.50886	990.58942	417.87674	272.29852	534.94147	512.21344	68.21519	543.51520	817.97266	153.68437	112.45318	438.02216	-140.11559	275.44824	573.81158	
289	2.880	143.35948	1589.67761	834.36029	13.74464	1543.80701	489.42578							261.29977	1520.11255	490.43381	-94.04008	1487.17419	696.23767	120.74803	1352.30090	677.42944	16.02631	1647.14868	774.73328	361.02841	1232.44043	497.83722	-198.54027	1210.65405	690.40088	441.19525	1027.86121	617.35681	-182.42859	966.47333	799.96564	242.07500	956.66260	614.42456	-0.16353	980.10455	750.04742	31.51654	991.69794	425.80600	272.98978	533.92664	521.79010	79.08962	549.74884	832.08997	153.51071	113.25242	438.72729	-121.94157	270.31024	589.61432	
290	2.890	147.54837	1590.56250	842.35535	19.95029	1544.31030	496.65936							267.78333	1520.41199	499.52731	-89.79980	1487.42883	702.98688	125.97690	1353.09033	685.70856	19.94296	1647.52490	781.97272	367.76080	1233.26025	507.65811	-193.35022	1210.36633	696.19000	446.85297	1030.16553	630.53644	-178.22246	965.47449	803.58313	246.54509	955.88281	621.16980	4.51584	980.39490	757.62970	36.01292	992.57495	433.11349	273.87204	532.76257	530.86896	90.21056	555.50354	845.12085	153.53751	113.86299	438.87000	-103.63206	265.11288	605.67346	
291	2.900	151.90773	1590.79065	850.53168	26.02444	1544.64819	504.04123							273.34851	1521.21082	507.45895	-84.57033	1487.49731	709.42657	130.97758	1352.93274	693.08447	24.92293	1646.74500	789.16559	374.84366	1234.28918	518.78870	-188.43892	1210.46704	700.73267	452.72552	1032.25745	643.32617	-174.98447	964.76465	807.89648	250.88974	955.50885	627.87274	9.37764	980.64124	764.82190	39.69512	993.02930	440.66583	274.23575	531.53949	540.66986	101.70641	561.69403	857.60101	153.64029	114.40925	439.56686	-84.65658	258.26987	621.78528	
292	2.910	155.48134	1591.43787	858.76428	32.09460	1544.87891	511.47711							279.63382	1521.56982	516.82355	-80.44923	1487.39563	716.18225	136.25970	1353.34509	700.98346	28.91881	1647.08081	796.63983	381.46835	1235.41064	529.38086	-183.87227	1210.54395	706.48950	458.46371	1034.08264	656.05579	-170.60199	964.53192	812.00128	254.98625	955.53503	634.88782	13.94291	981.03815	772.43390	43.85522	993.25439	447.43793	275.16187	528.28528	550.11835	111.34907	567.56439	869.20154	154.08629	115.29054	440.14224	-66.03122	250.95979	638.83813	
293	2.920	159.34074	1591.76672	867.01428	38.02909	1545.06042	519.02704							285.51846	1521.84216	526.63525	-75.33947	1487.22766	722.64557	140.88521	1353.52319	709.33386	32.95758	1647.71912	804.29736	387.88144	1236.07190	539.89917	-179.27000	1210.02173	711.47058	463.92334	1036.54761	669.44061	-166.46075	963.32697	815.88824	259.38556	955.64539	641.94861	17.68160	980.85962	779.98334	48.26329	992.94684	454.11212	275.97888	526.91327	559.43372	120.17177	572.50378	880.54755	154.67647	116.39242	440.23981	-46.76376	243.85458	656.00281	
294	2.930	162.69530	1592.09998	875.43585	43.85842	1545.07190	526.69830							290.70584	1522.51660	535.38110	-71.35554	1487.33948	729.73730	145.57420	1353.21692	717.02832	37.56890	1647.65552	811.96161	393.36859	1237.15259	549.86084	-174.86269	1209.88208	717.16412	468.81253	1038.02380	681.91217	-162.77904	963.03064	820.64240	263.89255	955.92291	648.96936	22.12360	980.56561	787.47711	52.41975	993.40845	460.87305	277.67267	527.81500	566.88763	127.98077	577.72076	891.11761	155.23187	116.99568	440.89551	-28.05524	235.33090	673.55225	
295	2.940	166.97836	1592.10205	883.74451	49.67686	1545.06226	534.54596							296.72009	1522.44458	544.33136	-66.84200	1486.94653	736.92371	150.63290	1353.56775	725.26190	41.24249	1647.72510	819.87585	400.60358	1237.45898	561.10590	-170.36674	1209.04688	722.15753	474.76981	1039.18494	693.99976	-158.75252	961.90527	824.72375	268.33121	956.06409	656.76764	26.39439	980.58850	794.41632	57.01099	992.85834	467.13565	279.23334	528.31189	574.24707	135.94754	581.66394	900.68384	154.83499	117.66732	442.27280	-8.91990	227.40215	692.47461	
296	2.950	170.88124	1592.24695	892.19543	55.39096	1545.04517	542.55518							302.05960	1522.70837	553.48511	-62.68516	1486.93420	744.24750	155.09410	1353.53687	733.38641	45.62385	1647.81030	827.44696	405.93021	1238.21667	570.83911	-166.29137	1209.44421	727.99182	479.62817	1040.78833	706.26172	-155.07028	960.56403	829.07758	272.75916	955.95532	664.52698	30.42593	979.80359	801.52515	61.84890	992.91974	473.21649	280.26645	528.03845	582.21558	142.94788	585.77197	911.09747	154.97316	118.88538	442.72134	9.90755	218.68314	711.02472	
297	2.960	174.38451	1592.45630	900.77081	60.89359	1545.00574	550.60675							307.62134	1523.07288	563.16553	-58.10142	1486.98206	751.51563	159.57535	1353.59021	742.11292	49.55371	1647.12854	835.23816	412.18155	1238.30969	582.49683	-162.29532	1208.99890	734.33698	484.69067	1041.55896	719.77002	-151.14835	959.10620	833.85980	277.21304	955.88599	672.58734	34.36364	980.02112	808.78455	66.53442	993.00195	479.27164	280.79849	527.66852	590.39966	149.87898	589.12311	920.32068	155.30070	119.88387	442.76779	29.09650	210.51233	730.84619	
